<svg width="21" height="21" viewBox="0 0 21 21" fill="none" xmlns="http://www.w3.org/2000/svg">
<path d="M8.75 20.8833C3.79167 20.0083 0 15.6917 0 10.5C0 4.725 4.725 0 10.5 0C16.275 0 21 4.725 21 10.5C21 15.6917 17.2083 20.0083 12.25 20.8833L11.6667 20.4167H9.33333L8.75 20.8833Z" fill="url(#paint0_linear_3_139)"/>
<path d="M14.5833 13.4167L15.05 10.5H12.25V8.45837C12.25 7.64171 12.5417 7.00004 13.825 7.00004H15.1667V4.31671C14.4083 4.20004 13.5917 4.08337 12.8333 4.08337C10.4417 4.08337 8.75 5.54171 8.75 8.16671V10.5H6.125V13.4167H8.75V20.825C9.33333 20.9417 9.91667 21 10.5 21C11.0833 21 11.6667 20.9417 12.25 20.825V13.4167H14.5833Z" fill="white"/>
<defs>
<linearGradient id="paint0_linear_3_139" x1="10.5" y1="20.2732" x2="10.5" y2="0" gradientUnits="userSpaceOnUse">
<stop stop-color="#0062E0"/>
<stop offset="1" stop-color="#19AFFF"/>
</linearGradient>
</defs>
</svg>
