<svg width="16" height="16" viewBox="0 0 16 16" fill="none" xmlns="http://www.w3.org/2000/svg">
<path fill-rule="evenodd" clip-rule="evenodd" d="M8.74404 0.0174825C9.59661 -0.110402 10.3914 0.477067 10.5193 1.32963C10.6706 2.33829 10.4412 3.64785 9.99229 4.80761C9.9832 4.83111 9.97397 4.85466 9.9646 4.87826H14.2439C14.9982 4.87826 15.6097 5.48977 15.6097 6.24411C15.6097 6.67149 15.4135 7.05302 15.1061 7.30347C15.6279 7.49561 16 7.99713 16 8.58558C16 9.19324 15.6032 9.70821 15.0545 9.88551C15.1597 10.0791 15.2195 10.301 15.2195 10.5368C15.2195 11.2911 14.608 11.9027 13.8537 11.9027H13.6388C13.8918 12.1506 14.0488 12.4961 14.0488 12.8783C14.0488 13.6326 13.4373 14.2441 12.6829 14.2441H6.43902C5.68468 14.2441 5.07317 13.6326 5.07317 12.8783C5.07317 12.812 5.07789 12.7469 5.087 12.6831H5.07317V6.85416C5.06555 6.34175 5.31014 5.83608 5.76826 5.53067C6.2811 5.18878 6.75571 4.52058 7.08086 3.68061C7.41241 2.82412 7.47572 2.0849 7.43189 1.79274C7.30401 0.940178 7.89148 0.145367 8.74404 0.0174825ZM1 5.65875C0.447715 5.65875 0 6.10647 0 6.65875V14.0246C0 14.5769 0.447716 15.0246 1 15.0246H2.90244C3.45472 15.0246 3.90244 14.5769 3.90244 14.0246V6.65875C3.90244 6.10647 3.45472 5.65875 2.90244 5.65875H1Z" fill="#0572EF"/>
</svg>
